<svg xmlns="http://www.w3.org/2000/svg" viewBox="216.0493 207.9467 259.4933 256.8800" width="259" height="257">
<g transform="matrix(1.3333333,0,0,-1.3333333,0,2081.3333)">
<g transform="scale(0.1)">
<path style="fill:#f6c7b7;fill-opacity:1;fill-rule:nonzero;stroke:none" d="m 1726.94,13487.4 425.03,-17.5 425.1,-468.2 z"/>
<path style="fill:#f6c7b7;fill-opacity:1;fill-rule:nonzero;stroke:none" d="m 1726.94,13489.3 v -821.4 l 850.09,-484.1 0.04,821.4 -850.13,484.1"/>
<path style="fill:#a97d69;fill-opacity:1;fill-rule:nonzero;stroke:none" d="m 2184.74,12848.9 v -440.2 l -170.11,96.9 -4.16,2.4 -8.36,4.7 -17.73,10.1 v 440.2 l 200.36,-114.1"/>
<path style="fill:#403c3d;fill-opacity:1;fill-rule:nonzero;stroke:none" d="m 2184.74,12849.1 v -403.4 l -170.11,96.9 v 403.3 l 170.11,-96.8"/>
<path style="fill:#b2b3b2;fill-opacity:1;fill-rule:nonzero;stroke:none" d="m 1966.27,13215.4 v -227 l -176.36,100.4 -23.96,13.6 v 227 l 200.32,-114"/>
<path style="fill:#ffffff;fill-opacity:1;fill-rule:nonzero;stroke:none" d="M 1966.27,13215.1 V 13013 l -176.36,100.4 v 202 l 176.36,-100.3"/>
<path style="fill:#b2b3b2;fill-opacity:1;fill-rule:nonzero;stroke:none" d="m 2484.67,12989.9 v -227.1 l -176.35,100.5 -23.97,13.5 v 227.1 l 200.32,-114"/>
<path style="fill:#ffffff;fill-opacity:1;fill-rule:nonzero;stroke:none" d="m 2484.67,12989.5 v -202.1 l -176.35,100.5 v 201.9 l 176.35,-100.3"/>
<path style="fill:#403c3d;fill-opacity:1;fill-rule:nonzero;stroke:none" d="m 2639.08,12933.4 867.49,500.1 -487.08,537.2 -470.61,19.7 -868.51,-501.1 471.6,-19.4 487.11,-536.5"/>
<path style="fill:#a97d69;fill-opacity:1;fill-rule:nonzero;stroke:none" d="m 3444.52,13505.3 1.04,-822 -868.53,-499.5 0.04,821.4 867.45,500.1"/>
<path style="fill:#b2b3b2;fill-opacity:1;fill-rule:nonzero;stroke:none" d="m 3011.35,12648 -291.18,-167.5 -32.66,-18.8 v 306.2 l 323.4,186.5 0.06,-35.9 0.38,-270.5"/>
<path style="fill:#b2b3b2;fill-opacity:1;fill-rule:nonzero;stroke:none" d="m 3373.38,12853.9 -291.18,-167.5 -32.64,-18.7 v 306.2 l 323.39,186.5 0.1,-35.9 0.33,-270.6"/>
<path style="fill:#ffffff;fill-opacity:1;fill-rule:nonzero;stroke:none" d="m 2978.71,12665.4 -291.2,-167.4 v 270.3 l 290.82,167.7 0.38,-270.6"/>
<path style="fill:#ffffff;fill-opacity:1;fill-rule:nonzero;stroke:none" d="m 3340.76,12871.8 -291.2,-167.5 v 270.5 l 290.85,167.7 0.35,-270.7"/>
<path style="fill:#4b4748;fill-opacity:1;fill-rule:nonzero;stroke:none" d="m 2151.97,13469.9 867.52,500.8 487.08,-537.2 -867.49,-500.1 -487.11,536.5"/>
<path style="fill:#403c3d;fill-opacity:1;fill-rule:nonzero;stroke:none" d="m 1680.37,13489.3 v -39.8 l 445.04,-21.9 513.67,-563.4 v 69.2 l -487.11,536.5 -471.6,19.4"/>
<path style="fill:#403c3d;fill-opacity:1;fill-rule:nonzero;stroke:none" d="m 2639.08,12933.4 867.49,500.1 v -68.7 l -867.49,-500.6 v 69.2"/>
</g>
</g>
</svg>